<svg width="117" height="117" viewBox="0 0 117 117" fill="none" xmlns="http://www.w3.org/2000/svg">
<rect width="117" height="117" rx="27" fill="#9940FA"/>
<mask id="mask0_43_736" style="mask-type:alpha" maskUnits="userSpaceOnUse" x="0" y="0" width="117" height="117">
<rect width="117" height="117" rx="27" fill="#9940FA"/>
</mask>
<g mask="url(#mask0_43_736)">
<path d="M62.9269 35.3762V51.3056H41.3001V117H21.4174V51.3056H-0.209473V35.3762H62.9269Z" fill="white"/>
<path d="M80.6408 77.7268C85.7146 77.7268 89.7394 79.2636 92.7154 82.3371C95.7402 85.4107 97.2525 89.6795 97.2525 95.1435V119H84.812V96.8267C84.812 94.1922 84.1046 92.1676 82.6898 90.7528C81.3238 89.2892 79.4212 88.5574 76.9818 88.5574C74.5425 88.5574 72.6155 89.2892 71.2007 90.7528C69.8347 92.1676 69.1516 94.1922 69.1516 96.8267V119H56.7112V96.8267C56.7112 94.1922 56.0037 92.1676 54.5889 90.7528C53.2229 89.2892 51.3203 88.5574 48.881 88.5574C46.4416 88.5574 44.5146 89.2892 43.0998 90.7528C41.7338 92.1676 41.0508 94.1922 41.0508 96.8267V119H28.5371V78.1659H41.0508V83.2885C42.3192 81.581 43.9779 80.2393 46.027 79.2636C48.076 78.2391 50.3933 77.7268 52.979 77.7268C56.0525 77.7268 58.7846 78.3855 61.1751 79.7027C63.6144 81.0199 65.5171 82.8982 66.8831 85.3375C68.2979 83.0933 70.2249 81.2638 72.6643 79.849C75.1036 78.4342 77.7624 77.7268 80.6408 77.7268Z" fill="white"/>
<path d="M76 55.0089L84.9911 64L108.111 40.88" stroke="white" stroke-width="8.99111" stroke-linecap="round"/>
</g>
</svg>
